<svg version="1.1" xmlns="http://www.w3.org/2000/svg" viewBox="0 0 514.5 226.09347327066584" width="514.5" height="226.09347327066584">
  <!-- svg-source:excalidraw -->
  
  <defs>
    <style class="style-fonts">
      @font-face {
        font-family: "Virgil";
        src: url("https://excalidraw.com/Virgil.woff2");
      }
      @font-face {
        font-family: "Cascadia";
        src: url("https://excalidraw.com/Cascadia.woff2");
      }
    </style>
  </defs>
  <rect x="0" y="0" width="514.5" height="226.09347327066584" fill="#ffffff"></rect><g stroke-linecap="round"><g transform="translate(151 37.89723914451898) rotate(0 26.994537215167668 0.17591335794888607)"><path d="M1.1 -0.21 C10.03 0.12, 44.99 1.57, 53.76 1.72 M0.22 -1.37 C8.95 -1.36, 43.93 -0.56, 52.69 -0.03" stroke="#000000" stroke-width="1" fill="none"></path></g></g><mask></mask><g stroke-linecap="round"><g transform="translate(203 36.89723914451898) rotate(0 16.544884776696563 -12.612161485478282)"><path d="M-0.3 -0.37 C4.94 -4.54, 25.89 -21.09, 31.14 -24.85 M1.74 -1.61 C7.38 -5.66, 28.08 -19.91, 33.39 -23.76" stroke="#000000" stroke-width="1" fill="none"></path></g></g><mask></mask><g stroke-linecap="round"><g transform="translate(244 36.89723914451898) rotate(0 24.54916255213317 0.9211544201523054)"><path d="M-0.88 -0.39 C7.07 0.09, 39.47 1.7, 47.86 1.96 M0.87 -1.64 C9.14 -0.88, 41.97 2.86, 49.97 3.48" stroke="#000000" stroke-width="1" fill="none"></path></g></g><mask></mask><g stroke-linecap="round"><g transform="translate(294 36.89723914451898) rotate(0 9.965435357764363 -12.78379086577334)"><path d="M-0.69 -0.84 C2.75 -5.3, 17.08 -22.72, 20.62 -26.9 M1.15 1.33 C4.4 -2.91, 16.4 -20.47, 19.47 -25.31" stroke="#000000" stroke-width="1" fill="none"></path></g></g><mask></mask><g stroke-linecap="round"><g transform="translate(333 36.89723914451898) rotate(0 33.231698490455756 0.2915130335837546)"><path d="M1.1 1.18 C12.2 0.9, 55.33 -0.45, 66.25 -0.59 M0.22 0.75 C11.22 1.14, 54.44 0.45, 65.43 0.63" stroke="#000000" stroke-width="1" fill="none"></path></g></g><mask></mask><g stroke-linecap="round"><g transform="translate(219.7640395106282 214.60678540162743) rotate(0 35.53871104307473 0.5825700496695845)"><path d="M-0.96 0.47 C10.93 0.6, 60.11 0.18, 72.03 -0.03 M0.74 -0.32 C12.5 0.07, 60.15 1.42, 71.63 1.49" stroke="#000000" stroke-width="1" fill="none"></path></g></g><mask></mask><g stroke-linecap="round"><g transform="translate(288.7640395106282 212.60678540162743) rotate(0 15.615823515877139 -11.681482307240373)"><path d="M0.47 1.03 C5.93 -2.87, 26.85 -20.38, 31.97 -24.4 M-0.74 0.53 C4.63 -3.12, 25.27 -18.83, 31 -23.07" stroke="#000000" stroke-width="1" fill="none"></path></g></g><mask></mask><g stroke-linecap="round"><g transform="translate(216.7640395106282 145.60678540162743) rotate(0 38.360167512828525 0.08642013331876797)"><path d="M1.03 -0.03 C13.96 -0.08, 63.79 0.14, 76.6 0.17 M0.12 -1.1 C12.93 -1.06, 62.52 0.91, 75.45 1.27" stroke="#000000" stroke-width="1" fill="none"></path></g></g><mask></mask><g stroke-linecap="round"><g transform="translate(294.7640395106282 144.60678540162743) rotate(0 10.466917383894327 -14.044162668362276)"><path d="M-0.03 -0.4 C3.25 -4.91, 16.8 -21.76, 20.17 -26.06 M-1.51 -1.65 C2.11 -5.97, 18.42 -23.29, 22.44 -27.69" stroke="#000000" stroke-width="1" fill="none"></path></g></g><mask></mask><g stroke-linecap="round"><g transform="translate(335.7640395106282 146.60678540162743) rotate(0 33.27090315409009 0.17355949470768905)"><path d="M-0.4 -0.83 C10.59 -0.97, 55.74 -1.13, 66.94 -0.84 M1.6 1.35 C12.41 1.35, 55.67 0.64, 66.48 0.26" stroke="#000000" stroke-width="1" fill="none"></path></g></g><mask></mask><g stroke-linecap="round"><g transform="translate(333.7290968459099 212.72367964981132) rotate(0 35.6829389218334 0.7064576775960347)"><path d="M-0.07 -0.83 C11.96 -0.72, 61.11 0.65, 72.92 0.81 M-1.56 1.34 C10.33 1.63, 60.02 2.3, 72.46 2.24" stroke="#000000" stroke-width="1" fill="none"></path></g></g><mask></mask><g stroke-linecap="round"><g transform="translate(404.7290968459099 177.72367964981126) rotate(0 35.5122538406402 0.4051415424793845)"><path d="M-0.58 -0.96 C11.55 -0.58, 59.68 1.26, 71.6 1.77 M1.32 1.15 C13.44 1.24, 59.49 0.18, 70.97 0.05" stroke="#000000" stroke-width="1" fill="none"></path></g></g><mask></mask><g stroke-linecap="round"><g transform="translate(403 144.89723914451898) rotate(0 0.7160659725312257 18.120560054248216)"><path d="M0.6 0.77 C1.03 6.95, 1.58 30.32, 1.97 36.12 M-0.54 0.13 C-0.22 6.08, 0.46 29.02, 1.01 34.58" stroke="#000000" stroke-width="1" fill="none"></path></g></g><mask></mask><g stroke-linecap="round"><g transform="translate(407 212.89723914451898) rotate(0 -0.7996085276454323 -18.53295447848737)"><path d="M0.43 -0.94 C0.22 -6.82, -0.97 -30.41, -1.4 -36.43 M-0.81 1.18 C-1.11 -4.95, -1.67 -32.09, -2.03 -38.25" stroke="#000000" stroke-width="1" fill="none"></path></g></g><mask></mask><g stroke-linecap="round"><g transform="translate(215 144.89723914451898) rotate(0 1.3726865654531935 35.11320099077187)"><path d="M0.51 0.19 C1.01 12.11, 2.74 59.33, 3.42 70.98 M-0.68 -0.75 C-0.43 10.89, 1.37 57.33, 2.17 69.37" stroke="#000000" stroke-width="1" fill="none"></path></g></g><mask></mask><g stroke-linecap="round"><g transform="translate(162 176.89723914451898) rotate(0 27.130284876311208 0.6219199558219941)"><path d="M0.52 0.32 C9.7 0.69, 45.76 1.84, 54.92 1.8 M-0.66 -0.55 C8.36 -0.48, 44.66 -0.14, 53.93 0.09" stroke="#000000" stroke-width="1" fill="none"></path></g></g><mask></mask><g transform="translate(119 26.897239144518977) rotate(0 7.5 12.5)"><text x="0" y="18" font-family="Virgil, Segoe UI Emoji" font-size="20px" fill="#000000" text-anchor="start" style="white-space: pre;" direction="ltr">+</text></g><g transform="translate(128.5 165.39723914451898) rotate(0 7.5 12.5)"><text x="0" y="18" font-family="Virgil, Segoe UI Emoji" font-size="20px" fill="#000000" text-anchor="start" style="white-space: pre;" direction="ltr">+</text></g><g transform="translate(427.5 23.397239144518977) rotate(0 5.5 12.5)"><text x="0" y="18" font-family="Virgil, Segoe UI Emoji" font-size="20px" fill="#000000" text-anchor="start" style="white-space: pre;" direction="ltr">?</text></g><g transform="translate(493.5 167.39723914451898) rotate(0 5.5 12.5)"><text x="0" y="18" font-family="Virgil, Segoe UI Emoji" font-size="20px" fill="#000000" text-anchor="start" style="white-space: pre;" direction="ltr">?</text></g><g transform="translate(10 26.897239144518977) rotate(0 22 12.5)"><text x="0" y="18" font-family="Virgil, Segoe UI Emoji" font-size="20px" fill="#000000" text-anchor="start" style="white-space: pre;" direction="ltr">AND</text></g><g transform="translate(15 166.39723914451898) rotate(0 15 12.5)"><text x="0" y="18" font-family="Virgil, Segoe UI Emoji" font-size="20px" fill="#000000" text-anchor="start" style="white-space: pre;" direction="ltr">OR</text></g></svg>